<svg width="19" height="19" viewBox="0 0 19 19" fill="none" xmlns="http://www.w3.org/2000/svg">
<path d="M2.59766 15.3725C2.59766 15.0138 2.88844 14.7229 3.24714 14.7229H15.3718C15.7305 14.7229 16.0213 15.0138 16.0213 15.3725C16.0213 15.7312 15.7305 16.0219 15.3718 16.0219H3.24714C2.88844 16.0219 2.59766 15.7312 2.59766 15.3725Z" fill="#FFB300"/>
<path d="M3.46484 9.30994C3.46484 10.33 3.72649 11.2896 4.18597 12.1245H14.4353C14.8948 11.2896 15.1565 10.33 15.1565 9.30994C15.1565 6.08136 12.5392 3.46411 9.31067 3.46411C6.08209 3.46411 3.46484 6.08136 3.46484 9.30994Z" fill="#FFB300"/>
<path fill-rule="evenodd" clip-rule="evenodd" d="M5.19531 17.9705C5.19531 17.6118 5.48617 17.321 5.84487 17.321H12.7732C13.1319 17.321 13.4228 17.6118 13.4228 17.9705C13.4228 18.3292 13.1319 18.6201 12.7732 18.6201H5.84487C5.48617 18.6201 5.19531 18.3293 5.19531 17.9705Z" fill="#FFB300"/>
<path fill-rule="evenodd" clip-rule="evenodd" d="M9.31 0C9.6687 0 9.95956 0.290779 9.95956 0.649562V1.51557C9.95956 1.87427 9.6687 2.16513 9.31 2.16513C8.9513 2.16513 8.66044 1.87427 8.66044 1.51557V0.649562C8.66044 0.290779 8.9513 0 9.31 0ZM0 9.31C0 8.9513 0.290779 8.66044 0.649562 8.66044H1.51557C1.87427 8.66044 2.16513 8.9513 2.16513 9.31C2.16513 9.6687 1.87427 9.95956 1.51557 9.95956H0.649562C0.290779 9.95956 0 9.6687 0 9.31ZM16.4549 9.31C16.4549 8.9513 16.7457 8.66044 17.1044 8.66044H17.9704C18.3292 8.66044 18.62 8.9513 18.62 9.31C18.62 9.6687 18.3292 9.95956 17.9704 9.95956H17.1044C16.7457 9.95956 16.4549 9.6687 16.4549 9.31Z" fill="#FFB300"/>
<path fill-rule="evenodd" clip-rule="evenodd" d="M4.1853 12.1245H0.649562C0.290779 12.1245 0 12.4154 0 12.7741C0 13.1328 0.290779 13.4236 0.649562 13.4236H17.9704C18.3292 13.4236 18.62 13.1328 18.62 12.7741C18.62 12.4154 18.3292 12.1245 17.9704 12.1245H4.1853Z" fill="#FFB300"/>
<path d="M2.72735 2.72661C2.981 2.47296 3.39227 2.47296 3.64592 2.72661L3.9861 3.06679C4.23975 3.32044 4.23975 3.73171 3.9861 3.98536C3.73245 4.23901 3.32118 4.23901 3.06753 3.98536L2.72735 3.64519C2.4737 3.39154 2.4737 2.98026 2.72735 2.72661Z" fill="#FFB300"/>
<path d="M15.8944 2.72661C16.148 2.98026 16.148 3.39154 15.8944 3.64519L15.5542 3.98536C15.3005 4.23901 14.8893 4.23901 14.6356 3.98536C14.3819 3.73171 14.3819 3.32044 14.6356 3.06679L14.9758 2.72661C15.2294 2.47296 15.6407 2.47296 15.8944 2.72661Z" fill="#FFB300"/>
</svg>
